<?xml version="1.0" encoding="utf-8"?>
<!-- Generator: Adobe Illustrator 23.0.2, SVG Export Plug-In . SVG Version: 6.00 Build 0)  -->
<svg version="1.1" id="Layer_1" xmlns="http://www.w3.org/2000/svg" xmlns:xlink="http://www.w3.org/1999/xlink" x="0px" y="0px"
	 viewBox="0 0 489 127" style="enable-background:new 0 0 489 127;" xml:space="preserve">
<style type="text/css">
	.st0{fill:#262835;}
	.st1{fill:#F2F2F2;}
	.st2{fill:#495697;}
	.st3{fill:#DCDFE6;}
	.st4{fill:#8BCF9D;}
	.st5{fill:#B8D383;}
	.st6{fill:#EA8888;}
	.st7{fill:#636570;}
	.st8{fill:#94A9FF;}
	.st9{fill:#313442;}
	.st10{fill:#CCCCCC;}
	.st11{fill:#6A6E80;}
	.st12{fill:#434756;}
	.st13{font-family:'Lato', sans-serif; font-weight: 700;}
	.st14{font-size:86.2806px;}
</style>
<g>
	<g>
		<g>
			<g>
				<g>
					<g>
						<path class="st2" d="M72.79,119.25l-1.18-0.71c-0.51-0.31-12.61-7.7-15.12-18.58c-1.11-4.79-0.19-9.49,2.71-13.97
							c7.44-11.48,27.83-17.93,30.22-18.65c1.1-0.62,2.21-1.26,3.28-1.87c4.71-2.72,9.16-5.28,13.24-6.23
							c2.77-0.64,6.3,1.12,7.7,3.83c1.3,2.51,0.61,5.33-1.86,7.53c-0.51,0.46-1.38,1.24-2.44,2.19l5.34-1.61
							c1.4-3.56,2.52-7.5,3.31-11.71c1.29-6.83,4.65-10.6,9.46-10.6c0,0,0,0,0,0c1.34,0,2.48,0.54,3.3,1.55
							c2.54,3.16,1.23,10.31-0.61,18.63c-0.18,0.82-0.35,1.59-0.49,2.26c-1.74,8.34-5.07,18.58-11.07,20.01
							c-1.1,0.26-4.8,1.55-17.12,7.22c-9.37,4.31-17.65,10.22-27.69,19.77L72.79,119.25z M107.16,62.71c-0.14,0-0.28,0.01-0.4,0.04
							c-3.56,0.82-7.78,3.26-12.25,5.83c-1.14,0.66-2.31,1.33-3.49,1.99l-0.18,0.1l-0.19,0.06c-0.21,0.06-21.4,6.4-28.41,17.21
							c-2.35,3.63-3.1,7.39-2.23,11.19c1.75,7.6,9.42,13.54,12.34,15.56c9.88-9.26,18.21-15.11,27.63-19.44
							c9.75-4.48,15.57-6.92,17.79-7.45c3.1-0.74,6.31-7.34,8.37-17.23c0.14-0.69,0.32-1.48,0.5-2.31c0.63-2.84,1.41-6.37,1.76-9.49
							c0.49-4.41-0.14-5.74-0.43-6.1c-0.09-0.11-0.18-0.2-0.49-0.2c-3.7,0-5.26,4.17-5.92,7.66c-0.84,4.45-2.02,8.62-3.52,12.41
							l-0.62,1.58l-14.29,4.31c-2.76,2.5-5.08,4.61-5.13,4.66l-2.42-2.67c0.11-0.1,11.29-10.24,13.83-12.52
							c1.85-1.65,1.25-2.8,1.06-3.18C109.83,63.52,108.25,62.71,107.16,62.71z"/>
					</g>
				</g>
			</g>
			<g>
				<path class="st2" d="M60.72,86.97C68.19,75.45,90.14,69,90.14,69c5.87-3.28,11.44-6.91,16.22-8.01
					c3.42-0.79,9.14,3.88,4.24,8.26c-2.57,2.29-8.38,7.58-8.38,7.58l13.84-4.17l0.3-0.77c1.54-3.9,2.65-7.96,3.43-12.08
					c0.76-3.99,2.7-9.13,7.69-9.13c1.5,0,2.3,1.04,2.66,2.67c2.09-7.24,1.68-11.88,1.68-11.88h0c0.02-0.41,0.03-0.81,0.03-1.23
					c0-16.49-13.9-30.78-31.06-30.78c-12.54,0-23.34,8.07-28.24,18.36h-0.01C67.64,17.54,56.84,9.46,44.3,9.46
					c-17.15,0-31.06,14.29-31.06,30.78c0,0.41,0.02,0.82,0.03,1.23h0c0,0-1.75,19.58,20.04,40.96c8.15,8.17,17.11,16.01,30.18,26.79
					C58.77,103.71,55.03,95.76,60.72,86.97z"/>
			</g>
		</g>
	</g>
	<g>
		<text transform="matrix(1 0 0 1 141.8046 94.8486)" class="st2 st13 st14">HealthQ</text>
	</g>
</g>
</svg>
