<?xml version="1.0" encoding="utf-8"?>
<!-- Generator: Adobe Illustrator 23.0.2, SVG Export Plug-In . SVG Version: 6.00 Build 0)  -->
<svg version="1.1" id="Layer_1" xmlns="http://www.w3.org/2000/svg" xmlns:xlink="http://www.w3.org/1999/xlink" x="0px" y="0px"
	 viewBox="0 0 59 52.55" style="enable-background:new 0 0 59 52.55;" xml:space="preserve">
<style type="text/css">
	.st0{fill:#262835;}
	.st1{fill:#F2F2F2;}
	.st2{fill:#495697;}
	.st3{fill:#DCDFE6;}
	.st4{fill:#8BCF9D;}
	.st5{fill:#B8D383;}
	.st6{fill:#EA8888;}
	.st7{fill:#636570;}
	.st8{fill:#94A9FF;}
	.st9{fill:#313442;}
	.st10{fill:#CCCCCC;}
	.st11{fill:#6A6E80;}
	.st12{fill:#434756;}
</style>
<path class="st11" d="M57.78,27.72l-8.7-11.56c-0.42-0.56-1.26-0.57-1.69-0.01l-9,11.56c-0.54,0.7-0.05,1.72,0.84,1.72h5.81
	c-1.51,9-9.35,15.89-18.78,15.89c-10.5,0-19.04-8.54-19.04-19.04c0-10.5,8.54-19.04,19.04-19.04c5.74,0,11.12,2.55,14.76,7
	c1.09,1.33,3.05,1.53,4.38,0.44c1.33-1.09,1.53-3.05,0.44-4.38C41.03,4.39,33.89,1,26.27,1C12.34,1,1,12.34,1,26.27
	c0,13.94,11.34,25.27,25.27,25.27c12.87,0,23.51-9.67,25.07-22.12h5.59C57.81,29.42,58.31,28.42,57.78,27.72z"/>
</svg>
